<svg width="135" height="135" viewBox="0 0 135 135" fill="none" xmlns="http://www.w3.org/2000/svg">
<path d="M11.6901 67.4703C11.6902 72.5736 12.3628 77.489 13.7077 82.2165C15.0529 86.9439 16.932 91.3845 19.3451 95.5385C21.7584 99.6922 24.6562 103.47 28.0385 106.873C31.421 110.275 35.1792 113.192 39.3132 115.625C43.4474 118.058 47.888 119.947 52.6352 121.292C57.3825 122.637 62.3078 123.31 67.411 123.31C72.5144 123.31 77.4297 122.637 82.1571 121.292C86.8847 119.947 91.3055 118.058 95.4198 115.625C99.5341 113.192 103.302 110.275 106.724 106.873C110.146 103.47 113.074 99.6922 115.507 95.5385C117.94 91.3845 119.838 86.9439 121.203 82.2165C122.568 77.489 123.251 72.5736 123.251 67.4703C123.251 62.367 122.578 57.4516 121.233 52.7242C119.888 47.9967 117.999 43.5659 115.566 39.4319C113.133 35.2978 110.215 31.5396 106.813 28.1571C103.411 24.7747 99.633 21.867 95.4791 19.4341C91.3253 17.0011 86.8847 15.1121 82.1571 13.767C77.4297 12.422 72.5144 11.7495 67.411 11.7495C62.3078 11.7495 57.3825 12.422 52.6352 13.767C47.888 15.1121 43.4474 16.9912 39.3132 19.4044C35.1792 21.8176 31.421 24.7154 28.0385 28.0978C24.6562 31.4802 21.7584 35.2483 19.3451 39.4022C16.932 43.556 15.0529 47.9967 13.7077 52.7242C12.3628 57.4516 11.6902 62.367 11.6901 67.4703V67.4703ZM30.3824 67.7077V67.4703L57.5604 39.0462H77.2615L56.5516 60.2308H101.591V74.9473H56.5516L77.2615 96.1319H57.5604L30.3824 67.7077ZM0 67.411C0.00014175 61.2791 0.811154 55.3648 2.43296 49.6681C4.05509 43.9714 6.34958 38.6209 9.31648 33.6165C12.2836 28.6121 15.8243 24.0527 19.9385 19.9384C24.0529 15.8242 28.6122 12.2835 33.6165 9.31648C38.621 6.34945 43.9814 4.05496 49.6978 2.43296C55.4144 0.811013 61.3385 2.025e-05 67.4703 0C73.6023 2.025e-05 79.5264 0.811046 85.2429 2.43296C90.9594 4.05497 96.3198 6.32968 101.324 9.25715C106.329 12.1846 110.898 15.7055 115.032 19.8198C119.166 23.9341 122.717 28.4934 125.684 33.4978C128.651 38.5022 130.945 43.8626 132.567 49.5791C134.189 55.2956 135 61.2395 135 67.411C135 73.5428 134.189 79.467 132.567 85.1835C130.945 90.8999 128.651 96.2604 125.684 101.265C122.717 106.269 119.166 110.838 115.032 114.973C110.898 119.106 106.329 122.657 101.324 125.624C96.3198 128.591 90.9594 130.895 85.2429 132.537C79.5264 134.179 73.6023 135 67.4703 135C61.3385 135 55.4144 134.189 49.6978 132.567C43.9814 130.945 38.621 128.66 33.6165 125.713C28.6122 122.766 24.0529 119.225 19.9385 115.091C15.8243 110.957 12.2836 106.388 9.31648 101.384C6.34958 96.379 4.05509 91.0087 2.43296 85.2725C0.811134 79.5362 0.00014175 73.5824 0 67.411V67.411Z" fill="white"/>
</svg>
