<svg width="980" height="980" viewBox="0 0 980 980" fill="none" xmlns="http://www.w3.org/2000/svg">
<path d="M965 490C965 752.335 752.335 965 490 965C227.665 965 15 752.335 15 490C15 227.665 227.665 15 490 15C752.335 15 965 227.665 965 490Z" fill="white" stroke="black" stroke-width="30"/>
<path d="M275.811 266.29C276.311 264.29 280.711 257.99 294.311 248.79C300.567 244.557 303.819 242.702 305.311 242.144C310.111 239.459 319.311 242.123 323.311 243.79C330.478 243.79 350.711 251.19 374.311 280.79C397.911 310.39 410.478 333.123 413.811 340.79C421.478 347.956 430.211 369.39 403.811 397.79C377.411 426.19 373.144 451.623 374.311 460.79C388.311 506.79 411.811 525.79 421.311 539.79C430.811 553.79 488.311 604.29 517.811 611.29C541.411 616.89 553.978 610.956 557.311 607.29C568.644 599.79 594.511 582.69 607.311 574.29C620.111 565.89 629.644 566.79 632.811 568.29C690.011 593.09 726.311 630.623 737.311 646.29C744.978 656.956 754.911 683.79 733.311 705.79C711.711 727.79 672.978 736.623 656.311 738.29C629.478 741.956 555.311 736.79 473.311 686.79C370.811 624.29 326.811 556.29 311.811 531.79C296.811 507.29 290.811 493.79 275.811 460.79C260.811 427.79 261.311 407.79 254.811 394.29C249.611 383.49 249.644 346.79 250.311 329.79C252.144 321.123 256.911 301.19 261.311 290.79C265.711 280.39 272.811 270.123 275.811 266.29Z" fill="black"/>
<path d="M305.311 243.79C306.391 242.62 307.063 241.489 305.311 242.144M305.311 242.144C303.819 242.702 300.567 244.557 294.311 248.79C280.711 257.99 276.311 264.29 275.811 266.29C272.811 270.123 265.711 280.39 261.311 290.79C256.911 301.19 252.144 321.123 250.311 329.79C249.644 346.79 249.611 383.49 254.811 394.29C261.311 407.79 260.811 427.79 275.811 460.79C290.811 493.79 296.811 507.29 311.811 531.79C326.811 556.29 370.811 624.29 473.311 686.79C555.311 736.79 629.478 741.956 656.311 738.29C672.978 736.623 711.711 727.79 733.311 705.79C754.911 683.79 744.978 656.956 737.311 646.29C726.311 630.623 690.011 593.09 632.811 568.29C629.644 566.79 620.111 565.89 607.311 574.29C594.511 582.69 568.644 599.79 557.311 607.29C553.978 610.956 541.411 616.89 517.811 611.29C488.311 604.29 430.811 553.79 421.311 539.79C411.811 525.79 388.311 506.79 374.311 460.79C373.144 451.623 377.411 426.19 403.811 397.79C430.211 369.39 421.478 347.956 413.811 340.79C410.478 333.123 397.911 310.39 374.311 280.79C350.711 251.19 330.478 243.79 323.311 243.79C319.311 242.123 310.111 239.459 305.311 242.144Z" stroke="black"/>
</svg>
