<svg width="924" height="923" viewBox="0 0 924 923" fill="none" xmlns="http://www.w3.org/2000/svg">
<path d="M383.45 185.942C394.124 218.04 397.937 242.294 396.067 266.794C393.809 293.61 389.466 307.136 381.195 313.036C372.761 319.052 363.342 317.626 341.736 307.329C304.644 289.235 277.475 295.385 267.112 324.408C257.34 351.744 272.268 391.236 295.326 398.213C308.451 402.338 320.16 399.846 339.37 388.944C360.559 376.889 367.443 374.779 377.704 377.385C385.118 379.221 386.546 380.499 391.837 389.708C395.542 395.971 398.573 404.508 399.314 411.607C400.205 417.85 397.287 447.667 393.127 477.878C388.962 508.081 385.79 533.253 386.101 534.05C387.785 536.411 435.765 548.004 461.085 552.09C513.166 560.512 518.929 555.382 499.94 518.774C490.94 501.524 488.496 489.522 490.941 475.814C497.54 439.035 533.812 414.944 570.063 422.939C589.401 427.214 602.453 436.231 615.211 454.117C624.168 466.313 625.78 470.002 627.187 480.189C629.61 498.568 625.77 511.748 610.719 535.971C597.917 556.563 615.63 567.843 654.565 564.257C678.878 561.938 725.74 541.998 747.506 524.692L757.102 517.085L756.471 340.62C756.052 243.684 755.241 163.316 754.637 162.469C753.795 161.288 437.2 160.315 380.252 161.482C375.659 161.466 375.874 162.836 383.45 185.942Z" fill="white"/>
<path d="M0.42 346.068L1.04 529.878L10.78 533.608C28.81 540.238 60.93 545.838 89.11 547.078C132.84 548.938 136.98 545.008 123.92 513.088C117.7 498.578 117.08 494.848 117.08 476.198C117.08 457.548 117.7 454.228 122.88 443.458C132.83 423.358 150.23 414.648 180.08 414.858C237.07 415.278 261.11 452.988 241.42 511.638C234.37 532.568 234.58 538.168 243.08 546.658C250.13 553.698 261.52 558.058 273.34 558.058C277.07 558.058 293.44 554.738 309.61 550.808C325.57 546.868 345.88 542.938 354.37 541.898L369.91 540.448L372.4 523.868C377.17 490.298 379.65 453.618 378.82 431.028C377.37 393.108 371.36 387.928 347.53 403.048C326.6 416.318 297.38 420.878 280.8 413.208C270.02 408.238 260.49 397.878 254.48 385.028C247.85 370.108 247.64 332.808 254.27 314.778C268.78 276.028 293.64 271.048 348.15 296.128C359.55 301.308 370.53 305.248 372.6 304.828C379.85 303.378 382.34 293.428 382.13 263.798C381.92 232.298 377.99 205.778 369.28 180.078L363.68 163.288L181.73 162.668L0 162.248L0.42 346.068Z" fill="white"/>
<path d="M169.72 435.588C140.5 441.388 132.42 468.328 146.92 509.988C155.62 534.858 154.8 543.978 142.57 557.238C130.34 570.498 120.19 573.608 90.14 573.608C61.75 573.398 40.82 568.838 15.12 557.028L0 549.978V736.488V922.788H183.4H366.8V914.918C366.8 910.778 369.7 888.188 373.02 864.978C384.83 784.568 380.89 773.178 348.36 793.278C333.65 802.398 325.56 804.878 309.4 805.088C289.51 805.298 276.66 799.908 262.15 785.188C247.85 770.888 244.54 762.808 244.54 742.708C244.54 712.248 265.26 677.848 289.51 668.728C303.39 663.338 321.63 665.618 338 674.738C373.64 694.428 383.38 687.998 383.38 645.108C383.17 618.998 379.86 596.198 373.23 576.308C366.18 555.378 368.88 556.418 336.76 563.048C301.12 570.298 273.14 574.658 260.91 574.658C248.06 574.658 231.48 569.478 223.82 563.048C209.52 551.028 208.07 538.598 217.81 512.278C232.52 472.278 223.61 442.648 194.6 436.018C184.44 433.518 180.5 433.518 169.72 435.588Z" fill="white"/>
<path d="M545.23 440.148C533.83 442.428 522.85 450.928 517.25 461.908C513.94 467.918 512.69 474.758 512.28 488.848C511.24 513.508 513.94 519.518 531.14 532.988C545.44 544.178 547.1 546.668 547.1 555.988C547.1 564.068 537.36 571.948 524.93 573.808C503.79 576.918 437.69 570.498 404.94 562.208C396.03 559.928 388.78 558.268 388.36 558.688C388.15 558.898 390.23 566.978 392.92 576.718C403.28 611.738 407.01 658.158 401.83 682.818C396.03 709.348 368.47 718.458 343.81 702.088C339.25 699.188 329.51 695.248 322.26 693.388C288.27 685.098 269.21 701.058 269.21 738.568C269.21 755.768 273.35 769.238 281.02 776.078C292.42 786.228 318.11 784.158 346.09 770.688C363.08 762.608 367.64 761.778 377.8 766.128C395 773.168 402.67 792.658 402.25 828.298C402.25 851.508 396.65 890.048 390.85 909.328C388.99 914.928 387.53 920.308 387.53 921.138C387.53 922.178 471.04 922.798 573 922.798H758.47V733.178C758.47 628.938 757.85 543.558 757.23 543.558C756.4 543.558 749.15 547.908 741.06 553.298C714.95 570.498 673.71 584.998 650.5 584.998C645.32 584.998 631.02 583.128 618.38 580.858C590.4 575.678 587.5 573.188 589.16 555.778C589.99 549.558 593.93 535.468 598.07 524.698C610.92 492.578 608.85 466.258 592.27 450.928C582.12 441.388 561.8 436.828 545.23 440.148Z" fill="white"/>
</svg>
