<svg width="982" height="774" viewBox="0 0 982 774" fill="none" xmlns="http://www.w3.org/2000/svg">
<path d="M129.32 6.08997L122.91 11.72L122.33 239.76C121.94 408.17 122.52 468.97 124.08 473.04C125.44 475.95 128.55 480.23 131.27 482.17C135.93 486.05 140.98 486.05 491.01 486.05H845.89L850.94 481.97C853.85 479.83 856.96 474.78 858.13 470.9C859.68 465.85 860.07 394.17 859.68 237.81L859.1 11.71L852.69 6.07996L846.47 0.449981H491H135.54L129.32 6.08997ZM830.92 230.64V420.02H491H151.08V230.63V41.24H491H830.92V230.64Z" fill="white"/>
<path d="M61.34 624.56C-7.62 762.86 -4.71 754.7 8.5 767.13L15.3 773.54H491H966.7L973.5 767.13C986.71 754.7 989.62 762.86 920.67 624.56L858.12 499.66H491H123.88L61.34 624.56ZM863.56 580.85C880.85 617.17 895.42 648.06 896.19 649.81C897.36 652.92 868.22 653.11 491.2 653.11C267.82 653.11 85.04 652.53 85.04 651.95C85.04 651.37 99.61 620.29 117.48 582.99L149.72 515.2H491H832.09L863.56 580.85ZM590.06 664.38C590.06 665.16 593.17 683.42 596.86 704.98C600.55 726.54 603.66 745.96 603.66 748.3C603.66 752.18 603.08 752.18 491 752.18H378.34V747.71C378.34 745.38 381.45 725.95 385.14 704.59C388.83 683.22 391.94 665.16 391.94 664.19C391.94 663.41 436.62 662.83 491 662.83C545.58 662.82 590.06 663.41 590.06 664.38Z" fill="white"/>
<path d="M156.13 524.13C153.8 530.35 155.16 530.93 169.73 530.35C182.74 529.77 185.08 529.18 187.6 525.3L190.32 521.03H173.8C160.59 521.03 157.1 521.61 156.13 524.13Z" fill="white"/>
<path d="M195.95 524.72C194.78 526.66 194.59 528.8 195.17 529.58C195.75 530.16 202.75 530.75 210.51 530.75C222.55 530.75 225.08 530.17 226.83 527.06C227.8 524.92 228.77 522.79 228.77 522.2C228.77 521.62 221.78 521.04 213.23 521.04C200.22 521.03 197.5 521.61 195.95 524.72Z" fill="white"/>
<path d="M235.77 524.13C233.44 530.35 234.8 530.93 250.34 530.35C264.71 529.77 266.46 529.38 267.82 525.3C269.37 521.03 269.18 521.03 253.25 521.03C240.23 521.03 236.74 521.61 235.77 524.13Z" fill="white"/>
<path d="M276.75 522.39C275.97 522.97 275.39 525.3 275.39 527.25C275.39 530.36 277.14 530.75 289.57 530.75C303.56 530.75 308.41 528.81 308.41 523.56C308.41 521.62 304.33 521.03 293.26 521.03C284.91 521.03 277.33 521.61 276.75 522.39Z" fill="white"/>
<path d="M315.4 524.33C313.26 529.57 316.76 530.93 331.72 530.35C344.35 529.77 346.09 529.38 347.45 525.3C349 521.03 348.81 521.03 332.88 521.03C319.48 521.03 316.38 521.61 315.4 524.33Z" fill="white"/>
<path d="M355.03 525.88C355.03 530.93 355.03 530.93 371.15 530.35C385.91 529.77 387.08 529.38 387.66 525.3C388.24 521.22 387.85 521.03 371.73 521.03C355.22 521.03 355.03 521.03 355.03 525.88Z" fill="white"/>
<path d="M395.24 525.11C393.88 530.36 396.4 531.13 412.53 530.36C424.77 529.78 425.93 529.39 426.51 525.31C427.09 521.23 426.7 521.04 411.75 521.04C397.76 521.03 396.21 521.42 395.24 525.11Z" fill="white"/>
<path d="M435.06 525.3C435.64 529.57 436.61 529.77 451.18 529.77C465.75 529.77 466.72 529.58 467.3 525.3C467.88 521.22 467.49 521.03 451.18 521.03C434.86 521.03 434.47 521.22 435.06 525.3Z" fill="white"/>
<path d="M475.46 525.88C475.46 530.74 475.65 530.74 491 530.74C506.34 530.74 506.54 530.74 506.54 525.88C506.54 521.02 506.34 521.02 491 521.02C475.65 521.03 475.46 521.03 475.46 525.88Z" fill="white"/>
<path d="M514.7 525.3C515.28 529.38 516.45 529.77 531.4 530.35C547.33 530.93 547.33 530.93 547.33 525.88C547.33 521.02 547.13 521.02 530.62 521.02C514.5 521.03 514.11 521.22 514.7 525.3Z" fill="white"/>
<path d="M555.49 525.3C556.07 529.38 557.24 529.77 570.45 530.35C585.6 530.93 589.1 529.57 586.96 524.33C585.99 521.61 582.88 521.03 570.26 521.03C555.29 521.03 554.9 521.22 555.49 525.3Z" fill="white"/>
<path d="M593.95 522.78C593.95 529.58 596.47 530.74 611.62 530.74C626.77 530.74 626.97 530.74 626.97 525.88C626.97 521.02 626.78 521.02 610.46 521.02C601.33 521.03 593.95 521.8 593.95 522.78Z" fill="white"/>
<path d="M635.13 525.3C635.71 529.38 636.88 529.77 651.83 530.35C667.56 530.93 668.92 530.35 666.59 524.13C665.62 521.6 662.32 521.02 649.88 521.02C634.93 521.03 634.54 521.22 635.13 525.3Z" fill="white"/>
<path d="M673.59 522.19C673.59 522.77 674.56 524.91 675.53 527.05C677.28 530.16 679.8 530.74 691.85 530.74C699.62 530.74 706.42 530.16 707 529.57C707.58 528.99 707.78 526.85 707.19 524.71C706.22 521.41 704.28 521.02 689.9 521.02C680.97 521.03 673.59 521.61 673.59 522.19Z" fill="white"/>
<path d="M714.18 525.3C715.54 529.38 717.29 529.77 731.66 530.35C747.2 530.93 748.56 530.35 746.23 524.13C745.26 521.6 741.76 521.02 728.75 521.02C712.82 521.03 712.63 521.03 714.18 525.3Z" fill="white"/>
<path d="M753.23 522.19C753.23 522.77 754.2 524.91 755.17 527.05C756.92 530.16 759.44 530.74 772.65 530.74C781.2 530.74 788.19 530.16 788.19 529.57C788.19 528.99 787.22 526.85 786.25 524.71C784.5 521.6 781.98 521.02 768.77 521.02C760.22 521.03 753.23 521.61 753.23 522.19Z" fill="white"/>
<path d="M794.41 525.3C796.93 529.18 799.27 529.77 812.28 530.35C826.85 530.93 828.21 530.35 825.88 524.13C824.91 521.6 821.41 521.02 808.2 521.02H791.69L794.41 525.3Z" fill="white"/>
<path d="M147.19 542.2C142.53 551.33 142.72 551.52 164.28 550.55L180.21 549.77L183.12 542.97C184.67 539.28 186.03 535.78 186.03 535.4C186.03 535.01 178.26 534.62 168.55 534.62H151.07L147.19 542.2Z" fill="white"/>
<path d="M193.81 535.4C193.81 535.79 192.45 539.28 190.9 543.17L187.99 550.16H206.25H224.5L226.64 544.14C227.81 540.64 228.78 537.15 228.78 536.37C228.78 535.4 221.01 534.62 211.3 534.62C201.77 534.62 193.81 535.01 193.81 535.4Z" fill="white"/>
<path d="M234.99 541.81C233.82 545.7 233.05 549.19 233.24 549.39C233.63 549.78 263.35 550.75 266.84 550.36C268.2 550.17 269.75 548.03 270.34 545.5C270.92 542.98 272.09 539.48 272.67 537.73C273.64 535.01 271.5 534.62 255.58 534.62H237.13L234.99 541.81Z" fill="white"/>
<path d="M280.64 535.98C280.06 536.95 279.09 540.45 278.31 543.75L276.95 550.16L289.38 550.55C312.69 551.13 313.08 551.13 315.21 540.84L316.57 534.63H298.89C289.38 534.62 281.02 535.21 280.64 535.98Z" fill="white"/>
<path d="M322.4 542.39L320.46 550.16L330.56 550.55C341.63 550.94 355.62 550.16 356.59 549.19C356.98 548.8 357.95 545.31 358.92 541.61L360.47 534.62H342.4H324.34L322.4 542.39Z" fill="white"/>
<path d="M367.85 536.96C363.97 549.2 364.35 550.17 371.93 550.56C379.12 550.75 400.48 549.98 400.87 549.39C401.06 549.39 401.65 545.89 402.42 541.81L403.78 534.62H386.1C373.68 534.62 368.24 535.4 367.85 536.96Z" fill="white"/>
<path d="M410.19 541.42C409.61 545.3 409.41 548.8 409.8 549.19C410.96 550.36 420.29 550.94 434.27 550.55L446.31 550.16V542.39V534.62H428.83H411.54L410.19 541.42Z" fill="white"/>
<path d="M454.09 542.2C454.09 546.47 455.06 549.97 456.61 550.55C457.78 550.94 466.13 550.94 475.06 550.55L490.99 549.77V542.2V534.62H472.54H454.09V542.2Z" fill="white"/>
<path d="M498.77 542.39V550.16H516.25H533.73V542.39V534.62H516.25H498.77V542.39Z" fill="white"/>
<path d="M541.5 542.2V549.97L558.01 550.55C577.82 551.33 578.4 551.13 578.4 545.3C578.4 535.2 577.23 534.62 558.78 534.62H541.5V542.2Z" fill="white"/>
<path d="M585.4 541.81C586.18 545.89 586.76 549.39 586.95 549.58C587.73 550.55 620.94 550.94 621.92 549.97C622.5 549.39 622.5 545.7 621.72 541.81L620.55 534.62H602.3H584.04L585.4 541.81Z" fill="white"/>
<path d="M629.49 541.62C630.07 545.5 630.85 549 631.24 549.2C632.02 549.98 653.77 550.75 661.15 550.56L667.37 550.17L665.43 542.4L663.49 534.63H645.81H628.33L629.49 541.62Z" fill="white"/>
<path d="M672.62 540.84C673.4 544.34 674.76 548.03 675.53 549C677.28 550.75 708.16 551.14 709.91 549.39C710.49 548.81 710.3 545.5 709.33 542.01L707.39 535.6L689.32 535.02L671.26 534.44L672.62 540.84Z" fill="white"/>
<path d="M716.71 540.84C717.88 544.34 719.43 548.03 720.4 549C721.96 550.75 795.57 551.14 797.32 549.58C797.71 549 796.54 545.5 794.79 541.61L791.29 534.62H753.03H714.57L716.71 540.84Z" fill="white"/>
<path d="M799.84 535.6C799.84 537.54 806.06 549.2 807.61 550.17C808.58 550.75 815.77 550.95 823.93 550.56L838.69 549.78L834.81 542.21L830.93 534.63H815.39C806.84 534.62 799.84 535.01 799.84 535.6Z" fill="white"/>
<path d="M142.14 555.6C140 556.96 133.59 568.23 133.59 570.56C133.59 571.14 147.38 571.53 164.28 571.53H194.78L197.89 563.95C199.83 559.68 200.61 555.79 200.03 555.21C198.47 553.47 144.67 553.86 142.14 555.6Z" fill="white"/>
<path d="M208.57 558.32C207.02 560.85 205.27 564.73 204.49 567.06C203.32 571.53 203.52 571.53 221.58 571.53H240.03L242.94 564.15C244.49 560.27 245.47 556.38 244.88 555.41C244.49 554.63 236.72 554.05 227.79 554.05C212.84 554.05 211.1 554.44 208.57 558.32Z" fill="white"/>
<path d="M254.61 556.38C253.45 557.74 251.7 561.82 250.53 565.12L248.39 571.53H267.23H286.27L288.21 563.76C289.38 559.49 289.96 555.6 289.38 555.02C287.05 552.88 256.36 554.05 254.61 556.38Z" fill="white"/>
<path d="M299.28 556.38C298.12 557.74 296.56 561.82 295.78 565.12L294.42 571.53H313.07C330.75 571.53 331.72 571.34 332.69 567.06C335.41 554.43 336.19 555.02 317.93 554.43C306.08 554.05 300.64 554.63 299.28 556.38Z" fill="white"/>
<path d="M343.76 557.35C342.79 559.29 341.43 563.18 340.65 566.09L339.48 571.53H358.71H377.94L378.91 564.15C379.3 560.27 379.3 556.38 378.91 555.41C378.52 554.63 370.75 554.05 361.82 554.05C348.23 554.05 345.12 554.63 343.76 557.35Z" fill="white"/>
<path d="M388.05 559.1C383.58 570.95 384.36 571.53 404.37 571.53H422.44L423.6 564.34C424.38 560.45 424.38 556.57 423.79 555.6C423.21 554.82 415.44 554.05 406.31 554.05C390.38 554.05 389.8 554.24 388.05 559.1Z" fill="white"/>
<path d="M434.09 555.41C433.7 556.19 432.73 560.27 431.95 564.15L430.59 571.53H450.21H469.83L469.25 563.18L468.67 555.02L451.77 554.44C442.63 554.24 434.67 554.63 434.09 555.41Z" fill="white"/>
<path d="M478.76 555.21C477.98 555.99 477.4 560.07 477.4 564.15V571.53H496.05H514.5L513.92 563.18L513.34 555.02L496.83 554.44C487.7 554.24 479.54 554.44 478.76 555.21Z" fill="white"/>
<path d="M523.44 555.21C522.66 555.99 522.08 560.07 522.08 564.15V571.53H541.12H560.16L559.19 563.18L558.02 555.02L541.51 554.44C532.37 554.24 524.22 554.44 523.44 555.21Z" fill="white"/>
<path d="M567.73 556.18C566.95 557.35 566.95 561.23 567.53 564.92L568.89 571.52H587.54H605.99L604.63 564.33C603.85 560.25 602.88 556.37 602.49 555.59C600.94 553.27 569.08 553.86 567.73 556.18Z" fill="white"/>
<path d="M612.59 555.6C612.01 556.57 612.01 560.46 612.79 564.34L613.95 571.53H632.99H652.03L649.5 563.18L647.17 555.02L630.46 554.44C621.14 554.24 613.18 554.63 612.59 555.6Z" fill="white"/>
<path d="M657.27 555.6C656.69 556.57 657.08 560.46 658.24 564.34L660.18 571.53H678.63H696.9L695.73 566.09C692.82 554.44 692.23 554.05 674.56 554.05C665.62 554.05 657.85 554.83 657.27 555.6Z" fill="white"/>
<path d="M701.95 555.6C701.37 556.57 701.95 560.46 703.12 564.34L705.26 571.53H724.3H743.34L739.84 563.18L736.34 555.02L719.64 554.44C710.49 554.24 702.53 554.63 701.95 555.6Z" fill="white"/>
<path d="M746.62 555.8C744.09 559.68 751.09 571.14 757.11 573.28C761.77 574.83 764.1 577.55 767.4 585.13L771.48 594.84H795.18H819.07L815.19 585.52C813.05 580.47 808.97 571.53 806.06 565.71L800.81 555.03L774.2 554.45C759.44 554.24 747.21 554.83 746.62 555.8Z" fill="white"/>
<path d="M810.92 555.21C810.34 555.99 811.5 559.87 813.64 563.95L817.33 571.53H832.87C841.42 571.53 848.41 571.14 848.41 570.56C848.41 568.23 842 556.96 839.86 555.6C837.33 553.86 812.66 553.66 810.92 555.21Z" fill="white"/>
<path d="M129.32 580.66C126.21 584.35 121.94 591.93 121.94 593.67C121.94 594.25 138.84 594.84 159.43 594.84H196.72L199.83 587.26C201.77 582.99 202.55 579.1 201.97 578.52C201.39 577.94 185.46 577.35 166.62 577.35C136.31 577.36 131.85 577.75 129.32 580.66Z" fill="white"/>
<path d="M212.46 578.72C211.1 580.08 205.47 592.51 205.47 594.06C205.47 594.45 214.21 594.84 224.7 594.84H243.93L246.07 588.82C249.95 577.55 249.76 577.36 231.11 577.36C221.59 577.36 213.23 577.94 212.46 578.72Z" fill="white"/>
<path d="M256.36 582.6C255.39 585.71 253.83 589.59 253.06 591.34C251.7 594.45 253.45 594.84 271.12 594.84H290.54L292.68 588.82C296.56 577.55 296.37 577.36 276.56 577.36C258.3 577.36 258.3 577.36 256.36 582.6Z" fill="white"/>
<path d="M303.75 579.69C303.17 581.05 302 585.13 300.84 588.43L298.9 594.84H318.13C328.62 594.84 337.75 594.26 338.14 593.29C338.53 592.51 339.5 588.63 340.28 584.55L341.64 577.36H322.99C309.77 577.36 304.14 578.13 303.75 579.69Z" fill="white"/>
<path d="M349.2 582.41C344.54 594.26 345.32 594.84 366.49 594.84H385.72L386.69 587.46C387.08 583.58 387.08 579.69 386.69 578.72C386.3 577.94 377.95 577.36 368.43 577.36C351.53 577.36 350.95 577.55 349.2 582.41Z" fill="white"/>
<path d="M395.82 582.41C391.16 594.26 391.94 594.84 413.3 594.84H432.72V586.1V577.36H415.24C398.15 577.36 397.57 577.55 395.82 582.41Z" fill="white"/>
<path d="M441.66 583.38C439.33 595.23 438.94 594.84 459.92 594.84H479.34V586.1V577.36H461.08H443.02L441.66 583.38Z" fill="white"/>
<path d="M488.47 578.52C487.69 579.3 487.11 583.38 487.11 587.46V594.84H506.73H526.15L525.57 586.49L524.99 578.33L507.51 577.75C497.8 577.55 489.25 577.75 488.47 578.52Z" fill="white"/>
<path d="M534.7 579.3C534.12 580.27 534.12 584.16 534.9 588.04L536.07 594.84H555.3H574.53L573.36 588.43C571.42 576.97 572 577.36 553.36 577.36C543.83 577.36 535.29 578.13 534.7 579.3Z" fill="white"/>
<path d="M580.35 580.08C580.35 581.44 580.93 585.52 581.52 588.82L582.88 594.84H602.11H621.34L619.98 587.46C619.2 583.58 618.23 579.69 617.84 578.72C617.45 577.94 608.71 577.36 598.61 577.36C584.43 577.36 580.35 577.94 580.35 580.08Z" fill="white"/>
<path d="M626.97 580.08C626.97 581.44 627.55 585.52 628.14 588.82L629.5 594.84H648.54C659.22 594.84 667.77 594.26 667.77 593.29C667.77 592.51 666.8 588.63 665.63 584.55L663.69 577.36H645.43C631.05 577.36 626.97 577.94 626.97 580.08Z" fill="white"/>
<path d="M673.59 581.05C673.59 583.19 674.37 587.07 675.53 589.79C677.28 594.65 677.86 594.84 695.93 594.84C707.39 594.84 714.38 594.06 714.38 592.9C714.38 591.74 713.02 587.85 711.66 584.16L708.75 577.36H691.27C675.14 577.36 673.59 577.75 673.59 581.05Z" fill="white"/>
<path d="M719.82 578.52C719.04 579.1 719.63 582.79 720.99 586.68L723.51 593.87L743.13 594.45L762.75 595.03L759.25 586.68L755.75 578.33L738.46 577.75C728.75 577.55 720.4 577.75 719.82 578.52Z" fill="white"/>
<path d="M821.21 579.3C821.21 580.27 822.76 584.16 824.51 588.04L827.81 594.84H843.93C852.86 594.84 860.05 594.45 860.05 593.87C860.05 593.29 858.3 589.21 856.17 585.13L852.29 577.36H836.75C828.01 577.36 821.21 578.13 821.21 579.3Z" fill="white"/>
<path d="M113.2 610.38L108.34 620.09H136.31H164.28L167.39 612.32C169.14 608.05 170.5 603.58 170.5 602.61C170.5 601.44 160.21 600.67 144.28 600.67H118.06L113.2 610.38Z" fill="white"/>
<path d="M179.63 603C179.05 604.36 177.3 608.83 175.55 612.71L172.44 620.09H192.64H212.84L215.95 610.96C217.7 605.91 219.06 601.64 219.06 601.25C219.06 600.86 210.32 600.67 199.83 600.67C186.23 600.67 180.41 601.44 179.63 603Z" fill="white"/>
<path d="M227.8 602.42C227.22 603.58 225.47 607.86 223.91 612.13L221.19 620.09H241.39H261.59L263.53 612.71C267.03 600.47 267.41 600.67 247.41 600.67C237.32 600.67 228.58 601.44 227.8 602.42Z" fill="white"/>
<path d="M273.25 608.83C272.08 613.49 270.73 617.76 270.14 618.54C269.75 619.51 278.49 620.09 289.56 620.09H309.96L312.1 611.54C313.27 606.68 314.24 602.41 314.24 601.83C314.24 601.25 305.5 600.66 294.82 600.66H275.59L273.25 608.83Z" fill="white"/>
<path d="M323.17 602.22C322.59 603.19 321.62 607.66 320.84 611.93L319.48 620.09H339.1C360.47 620.09 360.86 619.9 360.86 605.91V600.66H342.6C332.5 600.67 323.76 601.44 323.17 602.22Z" fill="white"/>
<path d="M369.79 606.69C367.07 620.48 366.68 620.09 387.85 620.09H407.08L408.25 614.07C410.97 600.28 411.36 600.67 390.19 600.67H371.15L369.79 606.69Z" fill="white"/>
<path d="M418.55 602.03C417.77 602.61 417.19 607.08 417.19 611.74V620.09H436.42H455.46L456.62 611.93C457.2 607.46 457.2 603 456.81 602.22C455.65 600.28 420.3 600.08 418.55 602.03Z" fill="white"/>
<path d="M465.75 610.38V620.09H485.17H504.6V610.38V600.67H485.18H465.76V610.38H465.75Z" fill="white"/>
<path d="M514.31 610.38V620.09H533.93H553.35L552.77 610.77L552.19 601.64L533.35 601.06L514.31 600.48V610.38Z" fill="white"/>
<path d="M560.93 604.36C560.93 606.3 561.51 610.77 562.1 614.07L563.46 620.09H582.5H601.73V614.65C601.73 600.86 601.15 600.66 580.17 600.66C562.67 600.67 560.93 601.06 560.93 604.36Z" fill="white"/>
<path d="M609.49 605.91C609.49 619.9 609.88 620.09 631.25 620.09H650.87L649.51 611.93C648.73 607.66 647.76 603.19 647.18 602.22C646.6 601.44 637.85 600.67 627.76 600.67H609.5V605.91H609.49Z" fill="white"/>
<path d="M656.11 601.83C656.11 602.41 657.08 606.69 658.25 611.54L660.39 620.09H679.62C700.99 620.09 701.18 619.9 696.71 606.69L694.57 600.67H675.34C664.85 600.67 656.11 601.25 656.11 601.83Z" fill="white"/>
<path d="M704.67 603C704.67 604.36 705.64 608.83 706.81 612.71L708.75 620.09H768.77C809.17 620.09 828.99 619.51 828.99 618.15C828.99 616.99 827.24 612.52 825.11 608.44L821.22 600.67H762.95C717.68 600.67 704.67 601.25 704.67 603Z" fill="white"/>
<path d="M830.92 601.44C830.92 601.83 832.67 606.1 834.8 611.15L838.88 620.08H856.36H873.65L868.79 610.37L863.93 600.66H847.42C838.3 600.67 830.92 601.06 830.92 601.44Z" fill="white"/>
<path d="M104.85 628.25C101.94 632.13 96.69 643.01 96.69 645.34C96.69 646.7 103.29 647.28 116.5 646.89L136.51 646.31L140.78 637.57C143.11 632.71 145.05 628.25 145.05 627.28C145.25 624.75 106.98 625.72 104.85 628.25Z" fill="white"/>
<path d="M151.08 634.08C145.06 647.29 144.86 647.29 166.62 647.29H186.24L189.93 638.94C195.95 625.93 196.15 625.93 174.39 625.93H154.77L151.08 634.08Z" fill="white"/>
<path d="M200.8 633.69C195.36 647.29 195.36 647.29 217.12 647.29C238.49 647.29 238.1 647.48 241.98 633.11L243.92 625.92H223.91H203.9L200.8 633.69Z" fill="white"/>
<path d="M251.11 632.13C245.28 646.5 245.09 646.31 267.23 646.89C289.37 647.47 288.4 648.06 291.9 632.13L293.26 625.91H273.45H253.83L251.11 632.13Z" fill="white"/>
<path d="M301.61 628.25C298.89 636.41 297.34 645.15 298.31 646.12C298.89 646.7 362.6 647.29 439.91 647.29H580.35V642.63C580.35 640.11 579.77 635.25 579.18 631.95L578.01 625.93H440.11C331.72 625.92 302.2 626.5 301.61 628.25Z" fill="white"/>
<path d="M588.12 632.13C588.12 647.28 588.32 647.28 610.85 647.28H631.05L629.69 637.96C629.11 632.91 628.13 628.25 627.55 627.28C627.16 626.5 618.03 625.92 607.35 625.92H588.12V632.13Z" fill="white"/>
<path d="M637.46 633.11C640.18 648.07 638.82 647.29 661.16 647.29H681.75L680.39 640.88C676.89 625.34 677.67 625.92 655.92 625.92H636.3L637.46 633.11Z" fill="white"/>
<path d="M685.24 626.5C685.24 626.89 686.6 631.75 688.15 637.18L691.26 647.28H711.46C722.73 647.28 731.85 647.09 731.85 646.7C731.85 646.31 730.49 641.45 728.94 636.02L725.83 625.92H705.63C694.37 625.92 685.24 626.11 685.24 626.5Z" fill="white"/>
<path d="M736.91 630.19C737.49 632.72 739.24 637.57 740.79 640.87L743.32 647.28H762.74C784.49 647.28 784.3 647.47 779.25 634.26L775.95 625.91H755.75C735.55 625.92 735.55 625.92 736.91 630.19Z" fill="white"/>
<path d="M786.25 626.31C786.25 626.7 788 631.17 789.94 636.6L793.63 646.31L814.41 646.89C830.73 647.28 835 646.89 834.22 644.95C833.64 643.59 831.7 638.73 829.95 634.07L826.65 625.91H806.45C795.38 625.92 786.25 626.11 786.25 626.31Z" fill="white"/>
<path d="M836.94 627.28C836.94 628.06 838.88 632.72 841.21 637.57L845.48 646.31L865.49 646.89C887.83 647.47 888.02 647.28 880.84 634.65L876.37 626.88L856.56 626.3C845.68 626.11 836.75 626.5 836.94 627.28Z" fill="white"/>
</svg>
