<svg width="980" height="972" viewBox="0 0 980 972" fill="none" xmlns="http://www.w3.org/2000/svg">
<path d="M762.2 173H320L304.9 173.1L514.9 51.6C528 44 532.5 27.3 524.9 14.2C517.3 1.1 500.6 -3.4 487.5 4.2L193.2 174.4C84.5 186.6 0 278.8 0 390.8V753.8C0 874.1 97.5 971.6 217.8 971.6H762.2C882.5 971.5 980 874 980 753.7V390.7C980 270.5 882.5 173 762.2 173ZM925.6 753.7C925.6 843.9 852.5 917 762.3 917H217.8C127.6 917 54.5 843.9 54.5 753.7V390.7C54.5 300.5 127.6 227.4 217.8 227.4H762.2C852.4 227.4 925.5 300.5 925.5 390.7V753.7H925.6Z" fill="white"/>
<path d="M535.4 663C520.4 663 508.2 675.2 508.2 690.2C508.2 705.2 520.4 717.4 535.4 717.4C550.4 717.4 562.6 705.2 562.6 690.2C562.6 675.2 550.4 663 535.4 663Z" fill="white"/>
<path d="M789.4 445.2H644.3C629.3 445.2 617.1 457.4 617.1 472.4C617.1 487.4 629.3 499.6 644.3 499.6H789.5C804.5 499.6 816.7 487.4 816.7 472.4C816.7 457.4 804.5 445.2 789.4 445.2Z" fill="white"/>
<path d="M789.4 663H644.3C629.3 663 617.1 675.2 617.1 690.2C617.1 705.2 629.3 717.4 644.3 717.4H789.5C804.5 717.4 816.7 705.2 816.7 690.2C816.7 675.2 804.5 663 789.4 663Z" fill="white"/>
<path d="M535.4 445.2C520.4 445.2 508.2 457.4 508.2 472.4C508.2 487.4 520.4 499.6 535.4 499.6C550.4 499.6 562.6 487.4 562.6 472.4C562.6 457.4 550.4 445.2 535.4 445.2Z" fill="white"/>
<path d="M290.4 427.1C210.2 427.1 145.2 492.1 145.2 572.3C145.2 652.5 210.2 717.5 290.4 717.5C370.6 717.5 435.6 652.5 435.6 572.3C435.6 492.1 370.5 427.1 290.4 427.1ZM290.4 681.1C230.3 681.1 181.5 632.4 181.5 572.2C181.5 512.1 230.2 463.3 290.4 463.3C350.6 463.3 399.3 512 399.3 572.2C399.3 632.4 350.5 681.1 290.4 681.1Z" fill="white"/>
</svg>
